<?xml version="1.0" encoding="UTF-8" standalone="no"?>
<!-- Created with Inkscape (http://www.inkscape.org/) -->

<svg
   xmlns:dc="http://purl.org/dc/elements/1.1/"
   xmlns:cc="http://creativecommons.org/ns#"
   xmlns:rdf="http://www.w3.org/1999/02/22-rdf-syntax-ns#"
   xmlns:svg="http://www.w3.org/2000/svg"
   xmlns="http://www.w3.org/2000/svg"
   xmlns:sodipodi="http://sodipodi.sourceforge.net/DTD/sodipodi-0.dtd"
   xmlns:inkscape="http://www.inkscape.org/namespaces/inkscape"
   width="744.09448"
   height="1052.3622"
   id="svg2"
   version="1.1"
   inkscape:version="0.48.4 r9939"
   sodipodi:docname="1_title_portrait.svg">
  <defs
     id="defs4" />
  <sodipodi:namedview
     id="base"
     pagecolor="#ffffff"
     bordercolor="#666666"
     borderopacity="1.0"
     inkscape:pageopacity="0.0"
     inkscape:pageshadow="2"
     inkscape:zoom="0.98994951"
     inkscape:cx="68.884316"
     inkscape:cy="247.40121"
     inkscape:document-units="mm"
     inkscape:current-layer="layer3"
     showgrid="false"
     inkscape:window-width="1680"
     inkscape:window-height="1000"
     inkscape:window-x="0"
     inkscape:window-y="0"
     inkscape:window-maximized="1"
     showguides="false"
     inkscape:guide-bbox="true"
     units="mm"
     inkscape:snap-grids="false"
     inkscape:snap-bbox="true"
     inkscape:snap-bbox-midpoints="true"
     inkscape:snap-global="true"
     inkscape:snap-to-guides="true">
    <sodipodi:guide
       orientation="0,1"
       position="-35.433071,350.7874"
       id="guide3069" />
    <sodipodi:guide
       orientation="0,1"
       position="-35.433071,701.5748"
       id="guide3071" />
    <inkscape:grid
       units="mm"
       empspacing="10"
       visible="true"
       enabled="true"
       snapvisiblegridlinesonly="true"
       type="xygrid"
       id="grid3073" />
    <sodipodi:guide
       orientation="0,1"
       position="-35.433071,526.1811"
       id="guide3079" />
    <sodipodi:guide
       orientation="0,1"
       position="-35.433071,175.3937"
       id="guide3081" />
    <sodipodi:guide
       orientation="0,1"
       position="-35.433071,876.9685"
       id="guide3083" />
    <sodipodi:guide
       orientation="0,1"
       position="-35.433071,789.27165"
       id="guide3085" />
    <sodipodi:guide
       orientation="0,1"
       position="-35.433071,613.87795"
       id="guide3087" />
    <sodipodi:guide
       orientation="0,1"
       position="-35.433071,87.69685"
       id="guide3089" />
  </sodipodi:namedview>
  <metadata
     id="metadata7">
    <rdf:RDF>
      <cc:Work
         rdf:about="">
        <dc:format>image/svg+xml</dc:format>
        <dc:type
           rdf:resource="http://purl.org/dc/dcmitype/StillImage" />
        <dc:title />
      </cc:Work>
    </rdf:RDF>
  </metadata>
  <g
     inkscape:groupmode="layer"
     id="layer3"
     inkscape:label="Deckblatt"
     transform="translate(0,-2.5390623e-6)"
     style="display:inline">
    <g
       id="g3055"
       transform="translate(93.781433,248.90889)">
      <text
         sodipodi:linespacing="125%"
         id="text3047"
         y="434.14883"
         x="279.31418"
         style="font-size:16px;font-style:normal;font-variant:normal;font-weight:normal;font-stretch:normal;text-align:center;line-height:125%;letter-spacing:2.13999987px;word-spacing:0px;text-anchor:middle;fill:#000000;fill-opacity:1;stroke:none;font-family:EB Garamond 12 All SC;-inkscape-font-specification:EB Garamond 12 All SC"
         xml:space="preserve"><tspan
           y="434.14883"
           x="280.38419"
           id="tspan3049"
           sodipodi:role="line">christian friedrich</tspan></text>
      <text
         sodipodi:linespacing="125%"
         id="text3051"
         y="452.66589"
         x="277.94019"
         style="font-size:12px;font-style:normal;font-variant:normal;font-weight:normal;font-stretch:normal;text-align:center;line-height:125%;letter-spacing:5.19000053px;word-spacing:0px;text-anchor:middle;fill:#d40000;fill-opacity:1;stroke:none;font-family:EB Garamond;-inkscape-font-specification:EB Garamond"
         xml:space="preserve"><tspan
           style="font-size:20px;letter-spacing:5.19000053px;fill:#d40000"
           y="452.66589"
           x="280.53519"
           id="tspan3053"
           sodipodi:role="line">ROLLE</tspan></text>
    </g>
    <text
       xml:space="preserve"
       style="font-size:12px;font-style:normal;font-variant:normal;font-weight:normal;font-stretch:normal;text-align:center;line-height:110.00000238%;letter-spacing:0px;word-spacing:0px;text-anchor:middle;fill:#000000;fill-opacity:1;stroke:none;font-family:EB Garamond;-inkscape-font-specification:EB Garamond"
       x="372.3208"
       y="412.09424"
       id="text3061"
       sodipodi:linespacing="110%"><tspan
         sodipodi:role="line"
         x="372.3208"
         y="412.09424"
         style="font-size:14px;font-style:normal;line-height:110.00000238%;-inkscape-font-specification:EB Garamond"
         id="tspan3037">Pasſions-Oratorium</tspan><tspan
         sodipodi:role="line"
         x="372.3208"
         y="427.49423"
         style="font-size:14px;font-style:normal;line-height:110.00000238%;-inkscape-font-specification:EB Garamond"
         id="tspan3051">nach</tspan><tspan
         sodipodi:role="line"
         x="372.3208"
         y="442.89423"
         style="font-size:14px;font-style:normal;line-height:110.00000238%;-inkscape-font-specification:EB Garamond"
         id="tspan3054">dem Evangeliſten</tspan><tspan
         sodipodi:role="line"
         x="372.3208"
         y="458.29425"
         style="font-size:14px;font-style:normal;line-height:110.00000238%;-inkscape-font-specification:EB Garamond"
         id="tspan3056">Beſpiegelt euch in Jeſu L.</tspan></text>
    <text
       xml:space="preserve"
       style="font-size:14px;font-style:normal;font-variant:normal;font-weight:normal;font-stretch:normal;text-align:center;line-height:125%;letter-spacing:1.84000015px;word-spacing:0px;text-anchor:middle;fill:#000000;fill-opacity:1;stroke:none;font-family:EB Garamond 12 All SC;-inkscape-font-specification:EB Garamond 12 All SC"
       x="372.06738"
       y="967.76636"
       id="text3099"
       sodipodi:linespacing="125%"><tspan
         sodipodi:role="line"
         x="372.9874"
         y="967.76636"
         id="tspan3023">full score</tspan></text>
    <text
       sodipodi:linespacing="110%"
       id="text3021"
       y="876.96851"
       x="371.86884"
       style="font-size:12px;font-style:normal;font-variant:normal;font-weight:normal;font-stretch:normal;text-align:center;line-height:110.00000238%;letter-spacing:0px;word-spacing:0px;text-anchor:middle;fill:#000000;fill-opacity:1;stroke:none;font-family:EB Garamond;-inkscape-font-specification:EB Garamond"
       xml:space="preserve"><tspan
         style="font-size:14px;font-style:normal;line-height:110.00000238%;-inkscape-font-specification:EB Garamond"
         y="876.96851"
         x="371.86884"
         sodipodi:role="line"
         id="tspan3097">3 S, 3 T, 4 B (Soli), 2 S, A, T, B (coro), 2 fl, 2 ob, 2 fag, 2 cor, 2 vl, vla, b, org</tspan></text>
    <path
       style="fill:#333333"
       d="m 386.66216,345.49181 c -1.06053,-0.55693 -1.21246,-0.95211 -1.17548,-3.05746 0.0488,-2.77913 1.86431,-9.14872 3.11917,-10.94351 0.46836,-0.66987 1.02118,-1.76315 1.22851,-2.42951 0.57421,-1.84549 2.72161,-4.87818 3.45417,-4.87818 0.3579,0 0.53333,-0.30596 0.38983,-0.67991 -0.16286,-0.42441 1.07858,-1.82172 3.30376,-3.71855 3.74758,-3.1946 3.93294,-3.49893 4.73951,-7.78103 0.27758,-1.47372 0.95482,-4.8718 1.50496,-7.55128 0.55015,-2.67949 1.04917,-5.20054 1.10894,-5.60233 0.064,-0.43031 -0.3418,-0.79461 -0.98748,-0.88645 -1.5345,-0.21826 -1.36946,-1.37184 0.24359,-1.70264 1.10455,-0.22652 1.65493,-0.9428 3.13509,-4.08013 0.98743,-2.09296 2.27914,-5.12076 2.87046,-6.72845 1.0912,-2.96676 3.33586,-6.65669 5.59152,-9.19174 1.65154,-1.85609 4.25902,-2.46871 5.35465,-1.25806 0.73688,0.81424 0.74018,1.15405 0.0411,4.2279 -0.72501,3.18766 -1.46562,5.33116 -3.01679,8.73142 -0.38518,0.84434 -0.70033,1.68488 -0.70033,1.86786 0,0.18298 -1.14826,1.53581 -2.55169,3.00628 -2.49913,2.61853 -4.35003,6.50313 -5.07061,10.64198 -0.13995,0.80384 -0.56487,2.15236 -0.94428,2.9967 -0.37941,0.84434 -0.68983,2.40692 -0.68983,3.4724 0,1.12129 -0.30554,2.19081 -0.72541,2.53927 -0.75792,0.62902 -0.51791,1.68971 0.27189,1.20159 0.94811,-0.58596 0.40376,1.36646 -0.60981,2.18719 -1.08554,0.87902 -2.5941,4.56761 -3.29818,8.06439 -0.21581,1.07179 -0.85736,2.86985 -1.42569,3.99569 -0.56832,1.12584 -1.03331,2.28116 -1.03331,2.56738 0,0.28621 -0.54808,1.3886 -1.21795,2.44975 -0.66987,1.06114 -1.21795,2.18187 -1.21795,2.4905 0,0.60278 -1.72019,3.61799 -2.74823,4.81719 -4.68604,5.46624 -6.48914,6.52095 -8.94408,5.23174 z m 6.29846,-4.06963 c 1.3993,-1.61975 3.91733,-6.44259 3.92613,-7.5198 0.003,-0.41532 0.20337,-0.9634 0.44439,-1.21795 0.24102,-0.25455 0.88021,-2.32628 1.42044,-4.60385 1.76394,-7.4367 1.78973,-9.59926 0.0901,-7.55128 -0.33356,0.40192 -0.91536,0.73077 -1.29289,0.73077 -0.37752,0 -0.82064,0.3498 -0.9847,0.77733 -0.16405,0.42753 -0.88937,1.42448 -1.6118,2.21545 -0.72243,0.79096 -1.74881,2.24982 -2.28084,3.2419 -0.53202,0.99208 -1.20661,2.24224 -1.49909,2.77814 -0.29247,0.5359 -0.90898,2.28974 -1.37002,3.89744 -0.46105,1.60769 -1.00682,3.1423 -1.21284,3.41025 -0.20602,0.26795 -0.5309,1.53714 -0.72195,2.82043 -0.2791,1.87467 -0.1797,2.51851 0.50576,3.27593 0.83594,0.9237 0.87884,0.92428 2.1287,0.0287 0.70157,-0.5027 1.80796,-1.53026 2.45865,-2.28347 z m 21.13106,-51.2198 c 2.32389,-3.74369 4.57441,-10.5738 3.66855,-11.13366 -1.36258,-0.84212 -4.3032,5.39802 -4.3032,9.1316 0,0.78505 -0.35406,1.96773 -0.7868,2.62817 -0.47435,0.72395 -0.57351,1.20081 -0.2497,1.20081 0.2954,0 1.04742,-0.82212 1.67115,-1.82692 z m -102.93771,41.95198 c -1.7143,-0.72082 -2.92771,-3.10242 -2.92771,-5.74634 0,-1.05625 -0.5555,-2.57979 -1.46154,-4.00846 -0.80385,-1.26754 -1.46154,-2.67331 -1.46154,-3.12394 0,-1.27727 -1.2053,-1.99586 -2.71299,-1.61745 -1.14226,0.28669 -1.29594,0.21052 -1.02096,-0.50605 0.17803,-0.46395 0.32705,-1.09964 0.33115,-1.41267 0.004,-0.33562 0.2195,-0.2693 0.52427,0.16164 0.56814,0.80334 0.52615,0.67521 -0.73853,-2.25377 -0.86248,-1.9975 -0.89147,-2.01424 -4.5934,-2.65381 -2.04899,-0.35399 -4.49274,-0.63605 -5.43056,-0.62679 -4.458,0.044 -11.67127,0.6787 -12.86302,1.1318 -0.73074,0.27783 -1.87116,0.50514 -2.53426,0.50514 -1.31156,0 -4.76293,1.58619 -6.21878,2.85804 -0.88932,0.77693 -4.20446,5.66475 -4.20446,6.19904 0,0.14791 -0.33924,0.60817 -0.75387,1.0228 -0.68038,0.68038 -0.68038,0.83509 0,1.5869 0.41463,0.45816 0.75387,1.19941 0.75387,1.64722 0,0.44781 0.18404,0.8142 0.40898,0.8142 0.22494,0 0.65342,0.53649 0.95218,1.19219 0.84304,1.85027 2.62226,2.77454 6.06833,3.15237 0.20096,0.022 0.36538,0.22949 0.36538,0.46102 0,0.80776 -4.37934,1.06833 -5.7802,0.34391 -2.01783,-1.04346 -3.96338,-5.28117 -3.96338,-8.63284 0,-2.91279 0.3613,-3.86747 2.67948,-7.07996 1.07318,-1.4872 2.4546,-2.50977 5.19876,-3.84831 2.05547,-1.0026 3.8411,-1.73265 3.96808,-1.62232 0.12698,0.11034 0.63754,-0.14228 1.13458,-0.56137 1.2103,-1.02048 8.09325,-2.64459 15.07921,-3.55811 5.40829,-0.70721 5.66933,-0.81407 5.33976,-2.18582 -0.38917,-1.61976 -1.66761,-7.29925 -1.9351,-8.59665 -0.39631,-1.92227 -0.81201,-6.41403 -1.01444,-10.96154 -0.11332,-2.54551 -0.43407,-5.80909 -0.7128,-7.25239 -0.73137,-3.78726 -0.62268,-12.48359 0.21161,-16.93097 0.39511,-2.10621 0.92322,-6.0441 1.17359,-8.75088 0.29571,-3.19691 0.885,-6.01367 1.68172,-8.03846 0.67458,-1.71438 1.57159,-4.32281 1.99336,-5.79653 0.42177,-1.47372 1.07682,-3.33718 1.45565,-4.14103 0.37884,-0.80384 1.47696,-3.21538 2.44028,-5.35897 0.96332,-2.14359 1.95394,-4.22628 2.20138,-4.62821 4.68491,-7.6097 7.92945,-12.65215 8.73614,-13.5771 0.55356,-0.63471 1.12132,-1.51163 1.26169,-1.94871 0.14037,-0.43709 0.85972,-1.19834 1.59855,-1.69168 0.73884,-0.49333 2.5267,-2.4723 3.97303,-4.39771 1.44632,-1.9254 3.52868,-4.19119 4.62745,-5.03509 1.09877,-0.8439 2.9843,-2.42089 4.19007,-3.50443 1.20577,-1.08354 2.85,-2.29541 3.65384,-2.69304 5.812,-2.87499 12.83561,-6.1266 13.2337,-6.1266 0.26304,0 1.83542,-0.65742 3.49418,-1.46093 3.54465,-1.71706 6.6878,-2.49672 9.78325,-2.42677 1.22785,0.0277 4.53439,-0.0709 7.34785,-0.21923 5.49158,-0.28953 10.07509,0.44057 13.91663,2.21676 1.08941,0.5037 2.18627,0.91581 2.43748,0.91581 0.25121,0 1.0775,0.6577 1.8362,1.46154 0.7587,0.80385 1.70939,1.46154 2.11263,1.46154 0.80306,0 2.55243,1.86304 2.57828,2.7458 0.009,0.30442 1.32138,1.90821 2.91659,3.56397 1.59521,1.65577 3.03498,3.43458 3.1995,3.95292 0.16451,0.51834 0.54011,0.94244 0.83466,0.94244 0.29455,0 0.38892,0.14663 0.2097,0.32585 -0.17922,0.17922 -0.0104,0.67441 0.37514,1.10044 0.38555,0.42602 0.80035,1.32248 0.92178,1.99213 0.19183,1.05785 1.29469,3.59174 2.80302,6.44013 0.24632,0.46514 0.5637,2.21899 0.7053,3.89743 0.1416,1.67844 0.4651,5.1344 0.71888,7.67992 0.50538,5.06892 -0.31278,15.43619 -1.37196,17.38464 -0.31814,0.58526 -0.57845,1.59977 -0.57845,2.25444 0,0.65469 -0.30025,1.43952 -0.66722,1.74408 -0.36697,0.30455 -1.0428,1.53717 -1.50183,2.73913 -0.45904,1.20197 -1.01194,2.1854 -1.22868,2.1854 -0.21675,0 -0.53163,0.54808 -0.69976,1.21795 -0.16813,0.66987 -0.50467,1.21795 -0.74787,1.21795 -0.2432,0 -0.99108,1.19894 -1.66195,2.66432 -1.15044,2.51288 -2.95178,5.19209 -6.03276,8.97274 -0.7395,0.90744 -1.54688,2.0036 -1.79419,2.4359 -0.2473,0.43231 -0.85018,1.07248 -1.33974,1.42261 -0.48956,0.35013 -0.89478,0.89821 -0.9005,1.21795 -0.0113,0.63193 -3.48216,3.26084 -4.30516,3.26084 -0.27832,0 -1.09721,0.54788 -1.81977,1.21753 -1.3014,1.20609 -3.86277,2.6799 -4.65747,2.6799 -0.9044,0 -0.33857,-1.02652 0.80562,-1.46154 0.66987,-0.25468 1.21795,-0.68209 1.21795,-0.94979 0,-0.2677 0.64878,-0.82222 1.44174,-1.23227 2.29719,-1.18793 10.73775,-9.98689 10.73775,-11.19369 0,-0.18166 0.51303,-1.02816 1.14008,-1.88111 0.62705,-0.85295 1.43349,-2.31814 1.79209,-3.25596 0.35861,-0.93782 1.62164,-3.6782 2.80675,-6.08974 3.25743,-6.62846 3.35889,-6.97189 3.81408,-12.91026 0.13349,-1.74166 0.3337,-4.04359 0.4449,-5.11538 0.1112,-1.0718 -0.13898,-5.12757 -0.55596,-9.01282 -0.77421,-7.21388 -0.79879,-7.29623 -4.43619,-14.85898 -1.39893,-2.9086 -2.76703,-5.10883 -3.17883,-5.1123 -0.20096,-0.002 -0.36539,-0.18958 -0.36539,-0.41752 0,-0.40137 -6.49115,-6.96294 -10.07244,-10.18172 -0.96891,-0.87083 -2.06157,-1.58333 -2.42814,-1.58333 -0.36657,0 -1.04716,-0.19585 -1.51244,-0.43522 -1.62421,-0.83563 -7.34405,-1.84707 -13.02544,-2.3033 -1.07179,-0.0861 -3.37372,-0.26895 -5.11538,-0.40641 -3.0718,-0.24244 -7.11764,0.59702 -8.6261,1.7898 -0.32319,0.25556 -0.81801,0.32227 -1.09959,0.14825 -0.28158,-0.17403 -0.64348,0.0263 -0.80423,0.44523 -0.16075,0.41891 -0.60455,0.76165 -0.98621,0.76165 -0.38167,0 -0.82013,0.32885 -0.97436,0.73077 -0.15424,0.40192 -0.66859,0.73077 -1.14301,0.73077 -0.47442,0 -1.1238,0.31475 -1.44308,0.69945 -0.31927,0.3847 -1.19601,0.83465 -1.9483,0.99988 -0.7523,0.16523 -2.10735,0.84883 -3.01121,1.51911 -0.90387,0.67028 -2.52032,1.61331 -3.59212,2.09563 -1.07179,0.48231 -3.59295,2.52988 -5.60256,4.55014 -5.07589,5.10277 -11.8523,12.47742 -12.35422,13.44486 -0.51061,0.98422 -5.79772,8.99189 -6.16147,9.33195 -0.14331,0.13398 -0.52543,0.84648 -0.84917,1.58334 -0.32374,0.73686 -0.81254,1.33974 -1.08623,1.33974 -0.2737,0 -0.49763,0.32933 -0.49763,0.73184 0,0.40251 -0.63346,1.99194 -1.40769,3.53205 -2.39188,4.75802 -3.4641,7.40815 -3.4641,8.56196 0,0.60912 -0.20001,1.31575 -0.44446,1.57031 -0.24446,0.25455 -0.9907,2.10705 -1.65831,4.11666 -3.06711,9.23239 -4.84609,26.34804 -3.72182,35.80769 0.22292,1.87565 0.53283,6.29951 0.68869,9.83082 0.24122,5.46532 0.51885,7.13241 1.86604,11.20513 2.2949,6.93776 1.95042,6.59193 6.98859,7.01599 5.31778,0.4476 8.03009,0.92327 8.82338,1.5474 0.75554,0.59441 2.37431,-1.22599 2.81874,-3.16985 0.16847,-0.73686 0.47482,-1.33974 0.68079,-1.33974 0.20596,0 0.75817,-0.93173 1.22713,-2.07051 0.46895,-1.13879 1.47309,-3.49552 2.2314,-5.23718 2.37986,-5.46596 4.35732,-12.09505 4.36584,-14.63569 0.005,-1.58927 -0.19607,-1.83072 -2.55191,-3.05949 -6.411,-3.34386 -8.00475,-4.30122 -9.25587,-5.56 -0.73655,-0.74106 -1.33944,-1.52644 -1.33974,-1.74528 -3e-4,-0.21884 -0.54862,-1.11645 -1.21849,-1.9947 -0.66988,-0.87825 -1.21795,-1.83189 -1.21795,-2.11921 0,-0.28731 -0.16443,-0.59546 -0.36539,-0.68478 -0.20096,-0.0893 -0.87828,-1.41975 -1.50515,-2.95653 -0.96911,-2.37575 -1.14618,-3.68885 -1.1825,-8.76923 -0.0322,-4.50129 0.15883,-6.50091 0.77439,-8.10686 0.44941,-1.17247 0.81711,-2.63451 0.81711,-3.24898 0,-0.61447 0.36594,-1.84748 0.8132,-2.74003 0.44726,-0.89255 1.03175,-2.06128 1.29887,-2.59717 2.94404,-5.90636 4.1087,-7.81628 5.99294,-9.8278 1.21158,-1.29343 3.01253,-3.22861 4.00209,-4.30041 2.02021,-2.1881 6.62838,-6.08974 7.19249,-6.08974 0.20261,0 0.82097,-0.42133 1.37414,-0.93629 0.55317,-0.51496 2.7596,-1.62667 4.90319,-2.47048 2.14359,-0.84381 4.3359,-1.8144 4.8718,-2.15688 0.53589,-0.34248 2.50897,-0.91373 4.38461,-1.26946 1.87564,-0.35572 3.67189,-0.84381 3.99167,-1.08463 0.68003,-0.51214 5.38048,-1.65372 8.47102,-2.05733 5.24415,-0.68486 13.26507,1.48577 16.58994,4.48959 1.48263,1.33947 2.03064,1.58504 2.55886,1.14666 0.51939,-0.43106 0.74045,-0.37987 0.97264,0.2252 0.46225,1.20459 0.36507,1.36344 -0.43028,0.70336 -0.59434,-0.49325 -0.73077,-0.47005 -0.73077,0.12429 0,0.40192 0.34556,1.01755 0.7679,1.36807 0.63633,0.52811 0.84754,0.51746 1.23275,-0.0622 0.32765,-0.49301 0.37694,-0.31972 0.16698,0.58716 -0.16382,0.70762 -0.0752,1.42418 0.19684,1.59233 0.89159,0.55104 2.05418,5.60208 2.22886,9.68355 0.17173,4.01257 -0.76859,11.18286 -1.60232,12.21827 -0.24472,0.30392 -0.60123,1.49973 -0.79223,2.65734 -0.191,1.15761 -1.332,4.06013 -2.53554,6.45004 -2.46856,4.9019 -5.79079,8.34739 -8.96606,9.29872 -1.04627,0.31347 -1.90231,0.72924 -1.90231,0.92393 0,0.61405 -4.89433,1.98406 -6.00353,1.6805 -0.58332,-0.15964 -2.09874,-0.75339 -3.3676,-1.31944 -1.94364,-0.86709 -2.35614,-1.29101 -2.61884,-2.69133 -0.51132,-2.72556 0.88569,-9.87025 1.92994,-9.87025 0.23138,0 0.30085,-0.3123 0.15437,-0.694 -0.35328,-0.92065 1.88852,-2.36528 3.08243,-1.98635 0.58708,0.18633 1.29382,-0.0723 1.92652,-0.70499 0.5496,-0.5496 0.99927,-0.76864 0.99927,-0.48675 0,0.28188 0.6577,0.74179 1.46154,1.02201 1.29085,0.44999 1.46154,0.73396 1.46154,2.43142 0,2.00682 -2.60835,7.54743 -4.44006,9.43148 -0.91379,0.9399 -0.99972,0.94429 -2.4299,0.12422 -1.32934,-0.76226 -1.46637,-0.76881 -1.32555,-0.0634 0.098,0.49103 1.31533,1.14193 3.23838,1.73157 l 3.08132,0.94479 3.00842,-1.42488 c 3.99116,-1.89034 5.0142,-2.87592 6.99127,-6.73531 3.84975,-7.51501 5.63097,-21.71937 3.28954,-26.23249 -0.38251,-0.73729 -0.69547,-1.72038 -0.69547,-2.18465 0,-0.46427 -0.38365,-1.30394 -0.85256,-1.86593 -0.46891,-0.56199 -1.37643,-1.69911 -2.0167,-2.52695 -2.97554,-3.84717 -5.21888,-5.83204 -7.11792,-6.29781 -1.07179,-0.26288 -2.71602,-0.66996 -3.65385,-0.90463 -3.01825,-0.75526 -10.0698,-0.26834 -11.37663,0.78556 -0.30759,0.24807 -1.71899,0.60698 -3.13644,0.79757 -2.18216,0.29342 -2.48696,0.45525 -1.98853,1.05582 0.50974,0.6142 0.40971,0.62775 -0.74617,0.1011 -0.88505,-0.40326 -1.44618,-0.44139 -1.66532,-0.11317 -0.48343,0.72408 -2.36189,1.46738 -4.95573,1.96098 -0.80548,0.15327 -1.46451,0.47658 -1.46451,0.71845 0,0.24187 -0.82211,0.81987 -1.82692,1.28445 -1.00481,0.46457 -2.33016,1.33795 -2.94522,1.94083 -0.61507,0.60289 -1.31127,1.09616 -1.54713,1.09616 -0.39842,0 -1.42244,0.91896 -7.65432,6.86897 -3.26786,3.12005 -5.23374,5.99571 -6.62785,9.69513 -0.65633,1.74167 -1.67,4.01207 -2.25259,5.04534 -0.58259,1.03327 -1.15352,2.78712 -1.26872,3.89744 -0.11522,1.11031 -0.65757,3.72006 -1.20523,5.79942 -0.54889,2.08401 -0.86648,4.37964 -0.70768,5.11539 0.66829,3.09637 2.47528,7.32393 3.97027,9.2887 0.88212,1.1593 1.60385,2.33005 1.60385,2.60165 0,0.2716 0.60289,1.3331 1.33975,2.35889 1.25122,1.74184 3.09297,2.89386 8.09322,5.06232 2.80989,1.21856 2.85006,1.13402 5.44128,-11.45183 0.64029,-3.10996 1.28771,-6.35578 1.43871,-7.21293 0.15102,-0.85715 0.61787,-2.47802 1.03746,-3.60193 0.41959,-1.12392 0.99159,-2.92041 1.2711,-3.9922 0.27952,-1.0718 0.67201,-2.38718 0.87221,-2.92308 2.04336,-5.46981 3.15745,-8.12986 3.49141,-8.33626 0.21971,-0.13579 0.39948,-0.62934 0.39948,-1.09678 0,-1.07268 5.32534,-10.0385 7.15462,-12.04563 0.75406,-0.82736 2.16421,-1.97832 3.13365,-2.55769 3.0062,-1.79657 4.41435,-1.18042 3.32311,1.45407 -0.50248,1.2131 -0.82899,1.43256 -1.84297,1.23873 -1.67265,-0.31975 -2.512,0.0738 -2.512,1.17773 0,0.50723 -0.17117,0.92224 -0.38037,0.92224 -0.47809,0 -1.4353,2.37108 -2.3601,5.84615 -0.3922,1.47372 -0.93636,3.4468 -1.20924,4.38462 -1.07959,3.71021 -2.36334,10.51376 -2.11148,11.19028 0.14659,0.39375 0.10483,0.55421 -0.0928,0.35657 -0.46523,-0.46523 -3.44132,10.55272 -3.7897,14.03007 -0.13154,1.31299 -2.61286,9.49052 -3.73956,12.3242 -0.24472,0.6155 -0.44495,1.41321 -0.44495,1.77271 0,0.97225 2.87591,1.34035 9.46635,1.21162 3.2339,-0.0632 7.52404,-0.0686 9.53365,-0.012 2.27168,0.064 4.43708,-0.17546 5.72436,-0.63293 1.13878,-0.40469 2.07052,-0.64564 2.07052,-0.53543 0,0.31215 3.37847,-0.96015 6.30271,-2.37355 1.45688,-0.70417 3.03336,-1.2803 3.5033,-1.2803 0.46994,0 0.98992,-0.21923 1.15552,-0.48718 0.16561,-0.26795 0.76921,-0.48718 1.34135,-0.48718 0.8994,0 0.81673,0.16492 -0.61058,1.21795 -0.90796,0.66987 -1.86787,1.21795 -2.13314,1.21795 -0.26527,0 -1.37364,0.41677 -2.46304,0.92616 -1.08941,0.50939 -2.78057,1.2911 -3.75814,1.73714 -2.2965,1.04782 -8.74512,2.29349 -11.86363,2.29167 -1.33974,-9.7e-4 -5.80586,-0.0297 -9.9247,-0.0642 -4.11884,-0.0345 -7.59316,0.0416 -7.7207,0.16915 -0.12755,0.12754 -0.53664,0.11496 -0.9091,-0.028 -0.41744,-0.16018 -1.00649,0.34746 -1.53571,1.32349 -0.47218,0.87084 -1.46154,2.29258 -2.19859,3.15942 -0.73705,0.86684 -1.90672,3.08157 -2.59926,4.92162 -0.69254,1.84005 -1.48654,3.61959 -1.76443,3.95452 -0.2779,0.33494 -0.35093,0.60898 -0.1623,0.60898 0.18864,0 -0.11336,0.73838 -0.67111,1.64083 -0.55775,0.90246 -1.0141,1.97517 -1.0141,2.38378 0,0.40861 -0.33087,0.86991 -0.73529,1.0251 -0.4044,0.15518 -0.70729,0.45267 -0.67307,0.66109 0.15795,0.96214 -0.1052,1.59692 -0.66215,1.59724 -0.33493,1.8e-4 -0.64241,0.49345 -0.68327,1.09615 -0.0867,1.27889 -0.78356,2.94403 -2.08964,4.99324 -1.16674,1.83061 -1.20246,2.19231 -0.2165,2.19231 0.71953,0 4.4869,1.83113 5.05992,2.45937 0.13398,0.14689 1.0109,0.79358 1.94872,1.43709 0.93782,0.64352 1.88045,1.45507 2.09472,1.80345 0.21428,0.34839 0.65274,0.63721 0.97436,0.64184 0.88573,0.0128 2.69636,2.11532 3.5208,4.08847 0.92483,2.21343 0.61863,3.80971 -1.63042,8.49983 -1.11973,2.33507 -4.58747,3.39733 -5.90562,1.80906 -0.4618,-0.55644 -0.38213,-0.80178 0.3955,-1.21795 0.53558,-0.28662 1.43209,-0.52114 1.99223,-0.52114 0.89961,0 1.96869,-1.56098 1.96869,-2.87452 0,-0.5447 -4.39612,-4.92035 -4.94336,-4.92035 -0.25434,0 -1.60285,-0.72655 -2.99671,-1.61455 -5.8033,-3.69718 -8.3405,-4.50391 -10.85745,-3.45226 -0.91521,0.3824 -1.66402,0.94093 -1.66402,1.24118 0,1.54958 1.2573,4.38614 2.22528,5.02039 0.95558,0.62612 1.2831,0.63034 2.48263,0.032 1.88844,-0.94196 2.98014,-0.68262 4.06073,0.96463 0.72295,1.10208 0.8029,1.6044 0.38086,2.39297 -1.05161,1.96497 -1.75878,2.33582 -3.79739,1.99139 -2.07519,-0.3506 -2.24791,-0.1365 -1.49262,1.85009 0.27771,0.73041 1.22194,1.49075 2.47288,1.99128 2.10394,0.84183 2.41487,1.87297 0.60499,2.00631 -0.575,0.0424 -1.72165,-0.2073 -2.54811,-0.55479 z m 2.35698,-8.37057 c -0.3434,-0.45023 -0.65502,-0.87856 -0.69249,-0.95186 -0.19233,-0.37621 -1.66912,0.56369 -1.66912,1.06231 0,1.11433 1.06193,1.73786 2.0548,1.20649 0.78408,-0.41963 0.83255,-0.62767 0.30681,-1.31694 z m -5.98678,-9.5577 c 0.93447,-0.69235 0.93413,-0.70948 -0.0287,-1.44605 -0.53589,-0.40996 -1.35801,-0.75236 -1.82692,-0.76089 -0.46891,-0.009 -1.0115,-0.0319 -1.20577,-0.052 -0.82584,-0.0854 -0.59158,1.00049 0.41892,1.94192 1.29727,1.20859 1.41935,1.22324 2.64245,0.31705 z m 41.84661,10.22279 c -1.40632,-1.40632 -1.53464,-2.43209 -0.93624,-7.48434 0.18999,-1.60413 1.94718,-7.0493 3.33027,-10.31986 1.09644,-2.59271 5.99848,-8.05189 8.18241,-9.11238 6.09593,-2.96009 8.72998,-3.6965 9.3918,-2.62566 0.15005,0.2428 0.72373,0.32353 1.27484,0.17941 0.67278,-0.17594 1.45869,0.17548 2.39184,1.06949 1.36316,1.30599 1.39998,1.31253 1.92005,0.34077 0.74485,-1.39175 2.36261,-1.80118 3.40162,-0.86089 0.80291,0.72663 0.80583,0.9535 0.0507,3.95315 -0.44059,1.75025 -1.05884,3.44004 -1.37389,3.75509 -0.31505,0.31505 -0.57281,1.09801 -0.57281,1.73992 0,0.64191 -0.41121,1.74902 -0.91379,2.46026 -0.50258,0.71123 -1.07218,2.06046 -1.26577,2.99828 -0.19359,0.93782 -0.65931,2.19069 -1.03493,2.78414 -0.37562,0.59346 -0.68295,2.26693 -0.68295,3.71882 0,2.23009 0.15123,2.67936 0.97436,2.89461 1.10559,0.28912 1.30883,1.89785 0.34122,2.70089 -0.34824,0.28901 -1.52647,0.66832 -2.61831,0.84291 -2.14352,0.34276 -2.506,0.0831 -2.89744,-2.07552 -0.12941,-0.71367 -0.38211,-1.53217 -0.56155,-1.81889 -0.17945,-0.28673 -0.37079,-0.81544 -0.4252,-1.17493 -0.0544,-0.35949 -0.17479,-0.72947 -0.26749,-0.82217 -0.16151,-0.16151 -1.99407,1.30382 -4.93669,3.94741 -0.75806,0.68102 -1.90902,1.48005 -2.55769,1.7756 -0.64868,0.29555 -1.17941,0.68623 -1.17941,0.86816 0,0.71941 -2.62032,1.46153 -5.16046,1.46153 -2.19448,0 -2.89487,-0.21616 -3.87451,-1.1958 z m 9.59356,-2.57984 c 1.01869,-0.46891 1.85782,-1.14712 1.86473,-1.50714 0.007,-0.36003 0.41347,-0.75942 0.90345,-0.88756 0.48999,-0.12813 1.75057,-1.24687 2.80129,-2.48608 1.05072,-1.23922 2.37063,-2.73502 2.93314,-3.32401 0.98668,-1.03312 2.87942,-5.07085 2.37703,-5.07085 -0.1354,0 0.0982,-0.82211 0.51913,-1.82692 1.14658,-2.73707 1.41289,-7.4511 0.48681,-8.61735 -1.04955,-1.32175 -7.86962,-1.45836 -8.59214,-0.17211 -0.25715,0.45777 -0.75663,0.72139 -1.10994,0.58581 -0.36003,-0.13815 -1.26158,0.56672 -2.05103,1.60357 -0.77474,1.01754 -2.01988,2.49113 -2.76698,3.27464 -0.74709,0.78351 -1.46872,1.98928 -1.6036,2.67949 -0.1349,0.69021 -0.57524,2.35108 -0.97855,3.69082 -0.88862,2.9519 -0.69309,10.04052 0.31031,11.24955 0.54999,0.66269 2.02401,1.50611 2.84841,1.62983 0.11317,0.017 1.03925,-0.35278 2.05794,-0.82169 z m 92.80033,1.97218 c -0.95818,-0.95819 0.21827,-4.75219 2.61315,-8.4273 0.26192,-0.40193 1.00065,-1.93654 1.64163,-3.41026 0.64099,-1.47372 1.63051,-3.7487 2.19894,-5.05552 0.56843,-1.30682 1.03351,-2.6876 1.03351,-3.0684 0,-0.38081 0.43846,-1.59989 0.97436,-2.70907 0.5359,-1.10918 0.97436,-2.39697 0.97436,-2.86176 0,-1.04405 3.23503,-2.26509 3.993,-1.50712 0.56201,0.56201 0.067,4.32592 -0.62514,4.75371 -0.24463,0.15119 -0.44479,0.69353 -0.44479,1.20521 0,0.67413 0.23478,0.8487 0.85257,0.63394 0.46891,-0.163 1.07179,-0.54792 1.33974,-0.85537 1.15252,-1.32241 6.05576,-3.18251 9.50279,-3.60499 2.00808,-0.24611 3.81548,-0.35286 4.01644,-0.23723 0.75703,0.43562 0.31627,2.78076 -1.09615,5.83231 -0.80385,1.73671 -1.46154,3.4293 -1.46154,3.76132 0,0.33202 -0.32187,1.02922 -0.71528,1.54934 -0.39339,0.52012 -0.72224,1.31368 -0.73077,1.76345 -0.009,0.44977 -0.33618,1.13845 -0.72813,1.53041 -0.82627,0.82626 -2.69701,5.53295 -2.69737,6.78644 -2.1e-4,0.73079 0.48684,0.85256 3.41001,0.85256 3.41678,0 4.61025,0.70946 2.07051,1.23081 -0.73685,0.15127 -2.16418,0.49379 -3.17183,0.76116 -2.4,0.63683 -5.11916,0.10355 -5.78138,-1.13382 -0.70809,-1.32307 -0.24458,-3.29518 1.77396,-7.54778 0.93417,-1.96808 1.69849,-3.77739 1.69849,-4.02069 0,-0.24331 0.87692,-2.13699 1.94871,-4.20818 2.3858,-4.61045 2.47261,-5.54304 0.51594,-5.54304 -0.78804,0 -1.57752,0.23418 -1.75441,0.52039 -0.17689,0.28622 -0.64218,0.39738 -1.03398,0.24704 -0.39178,-0.15034 -1.35366,0.0583 -2.1375,0.46362 -1.78325,0.92216 -6.308,5.26597 -6.308,6.05576 0,0.32322 -0.75467,1.50865 -1.67705,2.6343 -0.92238,1.12564 -2.1083,3.05267 -2.63537,4.28227 -0.52707,1.2296 -1.76604,3.35994 -2.75326,4.73408 -0.98722,1.37414 -1.64911,2.49844 -1.47086,2.49844 0.48903,0 -0.84471,1.23334 -2.00561,1.85463 -0.56212,0.30084 -1.16048,0.40855 -1.32969,0.23934 z m -73.63623,-1.30716 c -0.78069,-1.19148 -0.67967,-2.7013 0.34603,-5.17143 1.02313,-2.46397 1.25662,-2.68239 3.02775,-2.83235 l 1.80549,-0.15287 -0.33548,1.858 c -0.44368,2.45727 -0.63257,2.71865 -1.75293,2.42567 -0.74447,-0.19469 -0.91589,-0.0288 -0.79758,0.77196 0.0829,0.56097 0.39987,1.1019 0.70441,1.20208 0.72062,0.23703 5.16788,-3.59807 5.71318,-4.92677 0.90869,-2.21413 0.83593,-5.37143 -0.16922,-7.34297 -1.82675,-3.58307 -0.80726,-7.77923 2.78092,-11.44615 2.16899,-2.2166 3.49411,-2.71092 4.7687,-1.77892 0.80955,0.59196 0.85195,0.84995 0.32851,1.99878 -0.40473,0.88829 -0.84863,1.22408 -1.35918,1.02816 -1.54189,-0.59167 -3.05693,0.24345 -3.6385,2.00564 -0.31147,0.94375 -0.37626,1.85413 -0.14399,2.02327 0.23225,0.16913 0.93273,1.32381 1.55662,2.56598 0.93767,1.86689 1.07422,2.66936 0.78756,4.62821 -0.4958,3.38803 -1.83611,5.96232 -4.39588,8.44306 -1.22714,1.18926 -2.5403,2.76009 -2.91813,3.49072 -0.70502,1.36337 -1.25285,1.6551 -3.97195,2.11522 -1.28277,0.21706 -1.70921,0.0518 -2.33633,-0.90529 z m 52.16068,-0.65418 c -1.6198,-0.84869 -1.8707,-1.98962 -1.52151,-6.91861 0.38118,-5.38054 0.70559,-6.47762 3.15615,-10.67357 1.09714,-1.87857 2.00269,-3.59656 2.01233,-3.81776 0.0347,-0.79733 2.20745,-2.98189 3.73392,-3.75428 2.0092,-1.01665 3.62469,-1.04698 3.24632,-0.061 -0.15364,0.40038 -0.47464,0.60727 -0.71333,0.45975 -0.73303,-0.45304 -2.59547,1.98502 -3.27191,4.28316 -0.35272,1.19835 -0.98198,2.81437 -1.39837,3.59115 -1.10009,2.05228 -1.54843,4.25329 -1.89914,9.32334 -0.33865,4.89567 -0.0704,5.43863 2.38237,4.82301 2.46232,-0.61801 4.51638,-3.53165 6.81474,-9.6666 l 2.21137,-5.90276 -0.93355,-1.74178 c -1.1846,-2.21022 -1.17338,-3.30556 0.0545,-5.31949 0.7846,-1.2869 1.25203,-1.5835 2.30332,-1.46154 1.32403,0.15361 1.65605,0.71688 2.29283,3.88985 0.19209,0.95718 0.64739,1.38578 1.72308,1.62204 0.8041,0.17661 1.462,0.47908 1.462,0.67215 0,0.77349 -1.24441,1.52026 -2.53334,1.52026 -0.89069,0 -1.3641,0.25485 -1.3641,0.73434 0,0.40389 -0.57683,1.88369 -1.28185,3.28846 -0.70501,1.40477 -1.45732,2.91079 -1.6718,3.34671 -0.21447,0.43592 -0.53896,1.58688 -0.72109,2.55769 -0.18212,0.97081 -0.51119,1.76511 -0.73126,1.76511 -0.22007,0 -0.54968,0.47117 -0.73246,1.04705 -0.31737,0.99998 -3.06313,3.87199 -4.93856,5.16565 -2.53877,1.75123 -5.71298,2.25858 -7.68063,1.22762 z m -13.78829,-2.47143 c -1.38227,-0.20805 -2.26139,-1.74256 -1.66047,-2.89838 0.24379,-0.46891 0.59679,-2.16795 0.78445,-3.77564 0.33497,-2.86967 2.07308,-8.41795 3.41903,-10.91396 0.37533,-0.69604 0.79694,-1.81361 0.93691,-2.48348 0.37541,-1.79673 1.3574,-2.88757 2.73269,-3.03558 1.1576,-0.12459 1.21394,-0.0153 1.13709,2.20604 -0.0445,1.28542 -0.42811,2.86713 -0.85256,3.51491 -0.42444,0.64778 -0.77868,1.56916 -0.7872,2.04749 -0.009,0.47834 -0.33738,1.29526 -0.73077,1.81538 -0.39341,0.52013 -0.71528,1.34772 -0.71528,1.8391 0,0.49138 -0.43846,2.14092 -0.97436,3.66564 -0.5359,1.52472 -0.97267,3.10867 -0.97061,3.51988 0.002,0.41121 0.87899,1.24747 1.94872,1.85836 2.18194,1.24602 2.38823,1.78445 0.97373,2.54147 -0.89802,0.4806 -2.50349,0.51086 -5.24137,0.0988 z m 15.03671,-33.54301 c -0.38226,-0.83898 -0.42219,-1.45857 -0.11386,-1.76689 0.59441,-0.59442 2.98207,-0.0363 2.98207,0.69699 0,0.42752 -1.79251,2.36196 -2.18865,2.36196 -0.05,0 -0.35577,-0.58142 -0.67956,-1.29206 z m -4.1147,-11.21221 c -0.17863,-0.17863 -0.32479,-0.84321 -0.32479,-1.47683 0,-1.42151 1.40305,-2.07922 2.03324,-0.95313 1.4598,2.60852 11.0484,-1.91294 14.74975,-6.95518 1.30448,-1.77706 1.89909,-3.21403 2.26912,-5.4837 0.27579,-1.69158 0.73996,-3.56361 1.0315,-4.16006 l 0.53006,-1.08446 0.62773,1.20994 c 0.51855,0.99952 0.50038,1.82357 -0.10453,4.73831 -1.16114,5.59488 -2.59157,7.26624 -8.95738,10.46612 -0.93782,0.47141 -1.81474,0.96708 -1.94872,1.10148 -0.32998,0.33103 -2.28046,1.25789 -4.5659,2.16969 -1.94294,0.77516 -4.76653,1.00137 -5.34008,0.42782 z m -7.52228,-16.32626 c 0.26699,-0.80099 1.72182,-1.65364 2.12817,-1.24729 0.46348,0.46348 -0.73524,1.82146 -1.60785,1.82146 -0.39145,0 -0.62559,-0.25837 -0.52032,-0.57417 z m 3.41004,-2.43525 c 0.47659,-1.42978 11.78047,-4.68317 17.37956,-5.00205 2.22489,-0.12671 3.77574,-0.45092 4.05114,-0.84691 0.30991,-0.44561 0.36122,-0.33572 0.16798,0.35973 -0.17787,0.64014 0.0919,1.39865 0.74784,2.10273 0.56435,0.60575 0.88251,1.24495 0.70702,1.42044 -0.17549,0.17548 -0.50187,0.0233 -0.72529,-0.33822 -0.22342,-0.3615 -0.62566,-0.52166 -0.89386,-0.3559 -0.26821,0.16576 -1.47776,0.11641 -2.6879,-0.10967 -3.30587,-0.61761 -14.14181,0.9523 -16.77278,2.43003 -1.89544,1.0646 -2.23478,1.12302 -1.97371,0.33982 z"
       id="path3020"
       inkscape:connector-curvature="0"
       sodipodi:nodetypes="csssssssscsssssscsssssssssssssssccccsssscsscsssssccsssssscssssccssssssssssssscssssscsssssssssscscsscsssssscssssscscsscscsssscsssssscsssssssssssssssscsssccssccscscsssscsssssscssssscsssscssssscssssssssssssscssssssscscsssssssssscssssssscscsssssssscsssscssssssscssssssscsssssssssssssscscscssssscssssscsccssssssssccsssssscssscssssssssscscscccccssccsccscccssscsssssssssssssssscsssssccsccsssssccsscsscssssssssscsssscsscccsscsssssscccsssssssssscssccssssscscsssssscsscscsssssscssssssssscsscscccssssscsccsscssccscssssssssccssscsscsscssssccccsss" />
  </g>
</svg>
